# xmcd
# 
# Track frame offsets:
#     150
#     13872
#     24240
#     35757
#     48990
#     60492
#     71615
#     95185
#     108515
#     121920
#     138467
#     154792
#     167425
# 
# Disc length: 2595
# 
# Revision: 2
# Processed by: cddbd v1.5.2PL0 Copyright (c) Steve Scherf et al.
# Submitted via: fre:ac v1.1beta1pre3
# 
DISCID=ac0a210d
DTITLE=Waylon Jennings - Waylon Jennings Collector's Series
DYEAR=1978
DGENRE=Country
TTITLE0=Good Hearted Wooman
TTITLE1=Just To Satisfy You
TTITLE2=Ladies Love Outlaws
TTITLE3=Love of the Common People
TTITLE4=Rainy Day Woman
TTITLE5=Dreaming My Dreams
TTITLE6=MacArthur Park
TTITLE7=Amanda
TTITLE8=Are You Sure Hank Done It This Way
TTITLE9=Lonesome, On'ry and Mean
TTITLE10=Bob Wills Is Still The King
TTITLE11=I'm A Ramblin' Man
TTITLE12=Medley of Buddy Holly Hits
EXTD=
EXTT0=
EXTT1=
EXTT2=
EXTT3=
EXTT4=
EXTT5=
EXTT6=
EXTT7=
EXTT8=
EXTT9=
EXTT10=
EXTT11=
EXTT12=
PLAYORDER=
